<?xml version="1.0" encoding="UTF-8" standalone="no"?>
<!DOCTYPE svg PUBLIC "-//W3C//DTD SVG 1.1//EN"
 "http://www.w3.org/Graphics/SVG/1.1/DTD/svg11.dtd">
<!-- Generated by graphviz version 5.0.0 (20220707.1540)
 -->
<!-- Title: dependencies Pages: 1 -->
<svg width="718pt" height="174pt"
 viewBox="0.00 0.00 718.00 173.80" xmlns="http://www.w3.org/2000/svg" xmlns:xlink="http://www.w3.org/1999/xlink">
<g id="graph0" class="graph" transform="scale(1 1) rotate(0) translate(4 169.8)">
<title>dependencies</title>
<polygon fill="white" stroke="transparent" points="-4,4 -4,-169.8 714,-169.8 714,4 -4,4"/>
<text text-anchor="middle" x="355" y="-8.2" font-family="sans-serif" font-size="14.00">dependencies</text>
<g id="clust1" class="cluster">
<title>cluster_EtudiantsModule</title>
<polygon fill="none" stroke="black" stroke-dasharray="1,5" points="8,-32.8 8,-157.8 702,-157.8 702,-32.8 8,-32.8"/>
</g>
<g id="clust2" class="cluster">
<title>cluster_EtudiantsModule_declarations</title>
<polygon fill="none" stroke="black" points="198,-40.8 198,-92.8 694,-92.8 694,-40.8 198,-40.8"/>
</g>
<g id="clust6" class="cluster">
<title>cluster_EtudiantsModule_imports</title>
<polygon fill="none" stroke="black" points="16,-40.8 16,-92.8 190,-92.8 190,-40.8 16,-40.8"/>
</g>
<!-- EtudiantsComponent -->
<g id="node1" class="node">
<title>EtudiantsComponent</title>
<polygon fill="#ffffb3" stroke="black" points="686.21,-84.8 551.79,-84.8 551.79,-48.8 686.21,-48.8 686.21,-84.8"/>
<text text-anchor="middle" x="619" y="-62.6" font-family="Times,serif" font-size="14.00">EtudiantsComponent</text>
</g>
<!-- EtudiantsModule -->
<g id="node4" class="node">
<title>EtudiantsModule</title>
<polygon fill="#8dd3c7" stroke="black" points="423.44,-149.8 420.44,-153.8 399.44,-153.8 396.44,-149.8 310.56,-149.8 310.56,-113.8 423.44,-113.8 423.44,-149.8"/>
<text text-anchor="middle" x="367" y="-127.6" font-family="Times,serif" font-size="14.00">EtudiantsModule</text>
</g>
<!-- EtudiantsComponent&#45;&gt;EtudiantsModule -->
<g id="edge1" class="edge">
<title>EtudiantsComponent&#45;&gt;EtudiantsModule</title>
<path fill="none" stroke="black" d="M619,-84.91C619,-104.14 619,-131.8 619,-131.8 619,-131.8 433.24,-131.8 433.24,-131.8"/>
<polygon fill="black" stroke="black" points="433.24,-128.3 423.24,-131.8 433.24,-135.3 433.24,-128.3"/>
</g>
<!-- FormEtudiantComponent -->
<g id="node2" class="node">
<title>FormEtudiantComponent</title>
<polygon fill="#ffffb3" stroke="black" points="533.6,-84.8 374.4,-84.8 374.4,-48.8 533.6,-48.8 533.6,-84.8"/>
<text text-anchor="middle" x="454" y="-62.6" font-family="Times,serif" font-size="14.00">FormEtudiantComponent</text>
</g>
<!-- FormEtudiantComponent&#45;&gt;EtudiantsModule -->
<g id="edge2" class="edge">
<title>FormEtudiantComponent&#45;&gt;EtudiantsModule</title>
<path fill="none" stroke="black" d="M398.83,-84.91C398.83,-84.91 398.83,-103.79 398.83,-103.79"/>
<polygon fill="black" stroke="black" points="395.33,-103.79 398.83,-113.79 402.33,-103.79 395.33,-103.79"/>
</g>
<!-- ListEtudiantComponent -->
<g id="node3" class="node">
<title>ListEtudiantComponent</title>
<polygon fill="#ffffb3" stroke="black" points="356.05,-84.8 205.95,-84.8 205.95,-48.8 356.05,-48.8 356.05,-84.8"/>
<text text-anchor="middle" x="281" y="-62.6" font-family="Times,serif" font-size="14.00">ListEtudiantComponent</text>
</g>
<!-- ListEtudiantComponent&#45;&gt;EtudiantsModule -->
<g id="edge3" class="edge">
<title>ListEtudiantComponent&#45;&gt;EtudiantsModule</title>
<path fill="none" stroke="black" d="M333.53,-84.91C333.53,-84.91 333.53,-103.79 333.53,-103.79"/>
<polygon fill="black" stroke="black" points="330.03,-103.79 333.53,-113.79 337.03,-103.79 330.03,-103.79"/>
</g>
<!-- EtudiantsRoutingModule -->
<g id="node5" class="node">
<title>EtudiantsRoutingModule</title>
<polygon fill="#8dd3c7" stroke="black" points="181.55,-84.8 178.55,-88.8 157.55,-88.8 154.55,-84.8 24.45,-84.8 24.45,-48.8 181.55,-48.8 181.55,-84.8"/>
<text text-anchor="middle" x="103" y="-62.6" font-family="Times,serif" font-size="14.00">EtudiantsRoutingModule</text>
</g>
<!-- EtudiantsRoutingModule&#45;&gt;EtudiantsModule -->
<g id="edge4" class="edge">
<title>EtudiantsRoutingModule&#45;&gt;EtudiantsModule</title>
<path fill="none" stroke="black" d="M103,-84.91C103,-104.14 103,-131.8 103,-131.8 103,-131.8 300.69,-131.8 300.69,-131.8"/>
<polygon fill="black" stroke="black" points="300.69,-135.3 310.69,-131.8 300.69,-128.3 300.69,-135.3"/>
</g>
</g>
</svg>
