<?xml version="1.0" encoding="UTF-8" standalone="no"?>
<!DOCTYPE svg PUBLIC "-//W3C//DTD SVG 1.1//EN"
 "http://www.w3.org/Graphics/SVG/1.1/DTD/svg11.dtd">
<!-- Generated by graphviz version 5.0.0 (20220707.1540)
 -->
<!-- Title: dependencies Pages: 1 -->
<svg width="2417pt" height="247pt"
 viewBox="0.00 0.00 2417.00 246.80" xmlns="http://www.w3.org/2000/svg" xmlns:xlink="http://www.w3.org/1999/xlink">
<g id="graph0" class="graph" transform="scale(1 1) rotate(0) translate(4 242.8)">
<title>dependencies</title>
<polygon fill="white" stroke="transparent" points="-4,4 -4,-242.8 2413,-242.8 2413,4 -4,4"/>
<text text-anchor="middle" x="1204.5" y="-8.2" font-family="sans-serif" font-size="14.00">dependencies</text>
<g id="clust1" class="cluster">
<title>cluster_AppModule</title>
<polygon fill="none" stroke="black" stroke-dasharray="1,5" points="8,-32.8 8,-230.8 594,-230.8 594,-32.8 8,-32.8"/>
</g>
<g id="clust2" class="cluster">
<title>cluster_AppModule_declarations</title>
<polygon fill="none" stroke="black" points="168,-40.8 168,-92.8 586,-92.8 586,-40.8 168,-40.8"/>
</g>
<g id="clust6" class="cluster">
<title>cluster_AppModule_imports</title>
<polygon fill="none" stroke="black" points="16,-40.8 16,-92.8 160,-92.8 160,-40.8 16,-40.8"/>
</g>
<g id="clust8" class="cluster">
<title>cluster_AppModule_bootstrap</title>
<polygon fill="none" stroke="black" points="241,-170.8 241,-222.8 365,-222.8 365,-170.8 241,-170.8"/>
</g>
<g id="clust16" class="cluster">
<title>cluster_ContractsModule</title>
<polygon fill="none" stroke="black" stroke-dasharray="1,5" points="602,-32.8 602,-157.8 1699,-157.8 1699,-32.8 602,-32.8"/>
</g>
<g id="clust17" class="cluster">
<title>cluster_ContractsModule_declarations</title>
<polygon fill="none" stroke="black" points="792,-40.8 792,-92.8 1691,-92.8 1691,-40.8 792,-40.8"/>
</g>
<g id="clust23" class="cluster">
<title>cluster_ContractsModule_imports</title>
<polygon fill="none" stroke="black" points="610,-40.8 610,-92.8 784,-92.8 784,-40.8 610,-40.8"/>
</g>
<g id="clust33" class="cluster">
<title>cluster_EtudiantsModule</title>
<polygon fill="none" stroke="black" stroke-dasharray="1,5" points="1707,-32.8 1707,-157.8 2401,-157.8 2401,-32.8 1707,-32.8"/>
</g>
<g id="clust34" class="cluster">
<title>cluster_EtudiantsModule_declarations</title>
<polygon fill="none" stroke="black" points="1897,-40.8 1897,-92.8 2393,-92.8 2393,-40.8 1897,-40.8"/>
</g>
<g id="clust38" class="cluster">
<title>cluster_EtudiantsModule_imports</title>
<polygon fill="none" stroke="black" points="1715,-40.8 1715,-92.8 1889,-92.8 1889,-40.8 1715,-40.8"/>
</g>
<!-- AddProjetComponent -->
<g id="node1" class="node">
<title>AddProjetComponent</title>
<polygon fill="#ffffb3" stroke="black" points="578.38,-84.8 439.62,-84.8 439.62,-48.8 578.38,-48.8 578.38,-84.8"/>
<text text-anchor="middle" x="509" y="-62.6" font-family="Times,serif" font-size="14.00">AddProjetComponent</text>
</g>
<!-- AppModule -->
<g id="node4" class="node">
<title>AppModule</title>
<polygon fill="#8dd3c7" stroke="black" points="344.66,-149.8 341.66,-153.8 320.66,-153.8 317.66,-149.8 261.34,-149.8 261.34,-113.8 344.66,-113.8 344.66,-149.8"/>
<text text-anchor="middle" x="303" y="-127.6" font-family="Times,serif" font-size="14.00">AppModule</text>
</g>
<!-- AddProjetComponent&#45;&gt;AppModule -->
<g id="edge1" class="edge">
<title>AddProjetComponent&#45;&gt;AppModule</title>
<path fill="none" stroke="black" d="M509,-85.09C509,-107.01 509,-140.8 509,-140.8 509,-140.8 354.69,-140.8 354.69,-140.8"/>
<polygon fill="black" stroke="black" points="354.69,-137.3 344.69,-140.8 354.69,-144.3 354.69,-137.3"/>
</g>
<!-- AppComponent -->
<g id="node2" class="node">
<title>AppComponent</title>
<polygon fill="#ffffb3" stroke="black" points="421.94,-84.8 316.06,-84.8 316.06,-48.8 421.94,-48.8 421.94,-84.8"/>
<text text-anchor="middle" x="369" y="-62.6" font-family="Times,serif" font-size="14.00">AppComponent</text>
</g>
<!-- AppComponent&#45;&gt;AppModule -->
<g id="edge2" class="edge">
<title>AppComponent&#45;&gt;AppModule</title>
<path fill="none" stroke="black" d="M330.56,-84.91C330.56,-84.91 330.56,-103.79 330.56,-103.79"/>
<polygon fill="black" stroke="black" points="327.06,-103.79 330.56,-113.79 334.06,-103.79 327.06,-103.79"/>
</g>
<!-- HeaderComponent -->
<g id="node3" class="node">
<title>HeaderComponent</title>
<polygon fill="#ffffb3" stroke="black" points="297.75,-84.8 176.25,-84.8 176.25,-48.8 297.75,-48.8 297.75,-84.8"/>
<text text-anchor="middle" x="237" y="-62.6" font-family="Times,serif" font-size="14.00">HeaderComponent</text>
</g>
<!-- HeaderComponent&#45;&gt;AppModule -->
<g id="edge3" class="edge">
<title>HeaderComponent&#45;&gt;AppModule</title>
<path fill="none" stroke="black" d="M279.52,-84.91C279.52,-84.91 279.52,-103.79 279.52,-103.79"/>
<polygon fill="black" stroke="black" points="276.02,-103.79 279.52,-113.79 283.02,-103.79 276.02,-103.79"/>
</g>
<!-- AppComponent  -->
<g id="node6" class="node">
<title>AppComponent </title>
<polygon fill="#80b1d3" stroke="black" points="357.44,-214.8 248.56,-214.8 248.56,-178.8 357.44,-178.8 357.44,-214.8"/>
<text text-anchor="middle" x="303" y="-192.6" font-family="Times,serif" font-size="14.00">AppComponent </text>
</g>
<!-- AppModule&#45;&gt;AppComponent  -->
<g id="edge5" class="edge">
<title>AppModule&#45;&gt;AppComponent </title>
<path fill="none" stroke="black" stroke-dasharray="1,5" d="M303,-149.91C303,-149.91 303,-168.79 303,-168.79"/>
<polygon fill="black" stroke="black" points="299.5,-168.79 303,-178.79 306.5,-168.79 299.5,-168.79"/>
</g>
<!-- AppRoutingModule -->
<g id="node5" class="node">
<title>AppRoutingModule</title>
<polygon fill="#8dd3c7" stroke="black" points="152.28,-84.8 149.28,-88.8 128.28,-88.8 125.28,-84.8 23.72,-84.8 23.72,-48.8 152.28,-48.8 152.28,-84.8"/>
<text text-anchor="middle" x="88" y="-62.6" font-family="Times,serif" font-size="14.00">AppRoutingModule</text>
</g>
<!-- AppRoutingModule&#45;&gt;AppModule -->
<g id="edge4" class="edge">
<title>AppRoutingModule&#45;&gt;AppModule</title>
<path fill="none" stroke="black" d="M88,-84.91C88,-104.14 88,-131.8 88,-131.8 88,-131.8 251.29,-131.8 251.29,-131.8"/>
<polygon fill="black" stroke="black" points="251.29,-135.3 261.29,-131.8 251.29,-128.3 251.29,-135.3"/>
</g>
<!-- ContractDetailComponent -->
<g id="node7" class="node">
<title>ContractDetailComponent</title>
<polygon fill="#ffffb3" stroke="black" points="1682.75,-84.8 1519.25,-84.8 1519.25,-48.8 1682.75,-48.8 1682.75,-84.8"/>
<text text-anchor="middle" x="1601" y="-62.6" font-family="Times,serif" font-size="14.00">ContractDetailComponent</text>
</g>
<!-- ContractsModule -->
<g id="node12" class="node">
<title>ContractsModule</title>
<polygon fill="#8dd3c7" stroke="black" points="1222.71,-149.8 1219.71,-153.8 1198.71,-153.8 1195.71,-149.8 1109.29,-149.8 1109.29,-113.8 1222.71,-113.8 1222.71,-149.8"/>
<text text-anchor="middle" x="1166" y="-127.6" font-family="Times,serif" font-size="14.00">ContractsModule</text>
</g>
<!-- ContractDetailComponent&#45;&gt;ContractsModule -->
<g id="edge6" class="edge">
<title>ContractDetailComponent&#45;&gt;ContractsModule</title>
<path fill="none" stroke="black" d="M1601,-85.09C1601,-107.01 1601,-140.8 1601,-140.8 1601,-140.8 1232.87,-140.8 1232.87,-140.8"/>
<polygon fill="black" stroke="black" points="1232.87,-137.3 1222.87,-140.8 1232.87,-144.3 1232.87,-137.3"/>
</g>
<!-- ContractFormComponent -->
<g id="node8" class="node">
<title>ContractFormComponent</title>
<polygon fill="#ffffb3" stroke="black" points="1500.88,-84.8 1341.12,-84.8 1341.12,-48.8 1500.88,-48.8 1500.88,-84.8"/>
<text text-anchor="middle" x="1421" y="-62.6" font-family="Times,serif" font-size="14.00">ContractFormComponent</text>
</g>
<!-- ContractFormComponent&#45;&gt;ContractsModule -->
<g id="edge7" class="edge">
<title>ContractFormComponent&#45;&gt;ContractsModule</title>
<path fill="none" stroke="black" d="M1421,-84.91C1421,-104.14 1421,-131.8 1421,-131.8 1421,-131.8 1232.91,-131.8 1232.91,-131.8"/>
<polygon fill="black" stroke="black" points="1232.91,-128.3 1222.91,-131.8 1232.91,-135.3 1232.91,-128.3"/>
</g>
<!-- ContractListComponent -->
<g id="node9" class="node">
<title>ContractListComponent</title>
<polygon fill="#ffffb3" stroke="black" points="1322.82,-84.8 1171.18,-84.8 1171.18,-48.8 1322.82,-48.8 1322.82,-84.8"/>
<text text-anchor="middle" x="1247" y="-62.6" font-family="Times,serif" font-size="14.00">ContractListComponent</text>
</g>
<!-- ContractListComponent&#45;&gt;ContractsModule -->
<g id="edge8" class="edge">
<title>ContractListComponent&#45;&gt;ContractsModule</title>
<path fill="none" stroke="black" d="M1196.97,-84.91C1196.97,-84.91 1196.97,-103.79 1196.97,-103.79"/>
<polygon fill="black" stroke="black" points="1193.47,-103.79 1196.97,-113.79 1200.47,-103.79 1193.47,-103.79"/>
</g>
<!-- ContractsComponent -->
<g id="node10" class="node">
<title>ContractsComponent</title>
<polygon fill="#ffffb3" stroke="black" points="1153.49,-84.8 1018.51,-84.8 1018.51,-48.8 1153.49,-48.8 1153.49,-84.8"/>
<text text-anchor="middle" x="1086" y="-62.6" font-family="Times,serif" font-size="14.00">ContractsComponent</text>
</g>
<!-- ContractsComponent&#45;&gt;ContractsModule -->
<g id="edge9" class="edge">
<title>ContractsComponent&#45;&gt;ContractsModule</title>
<path fill="none" stroke="black" d="M1131.44,-84.91C1131.44,-84.91 1131.44,-103.79 1131.44,-103.79"/>
<polygon fill="black" stroke="black" points="1127.94,-103.79 1131.44,-113.79 1134.94,-103.79 1127.94,-103.79"/>
</g>
<!-- ModalContractDetailComponent -->
<g id="node11" class="node">
<title>ModalContractDetailComponent</title>
<polygon fill="#ffffb3" stroke="black" points="1000.3,-84.8 799.7,-84.8 799.7,-48.8 1000.3,-48.8 1000.3,-84.8"/>
<text text-anchor="middle" x="900" y="-62.6" font-family="Times,serif" font-size="14.00">ModalContractDetailComponent</text>
</g>
<!-- ModalContractDetailComponent&#45;&gt;ContractsModule -->
<g id="edge10" class="edge">
<title>ModalContractDetailComponent&#45;&gt;ContractsModule</title>
<path fill="none" stroke="black" d="M900,-84.83C900,-101.2 900,-122.8 900,-122.8 900,-122.8 1099.26,-122.8 1099.26,-122.8"/>
<polygon fill="black" stroke="black" points="1099.26,-126.3 1109.26,-122.8 1099.26,-119.3 1099.26,-126.3"/>
</g>
<!-- ContractsRoutingModule -->
<g id="node13" class="node">
<title>ContractsRoutingModule</title>
<polygon fill="#8dd3c7" stroke="black" points="776.32,-84.8 773.32,-88.8 752.32,-88.8 749.32,-84.8 617.68,-84.8 617.68,-48.8 776.32,-48.8 776.32,-84.8"/>
<text text-anchor="middle" x="697" y="-62.6" font-family="Times,serif" font-size="14.00">ContractsRoutingModule</text>
</g>
<!-- ContractsRoutingModule&#45;&gt;ContractsModule -->
<g id="edge11" class="edge">
<title>ContractsRoutingModule&#45;&gt;ContractsModule</title>
<path fill="none" stroke="black" d="M697,-84.91C697,-104.14 697,-131.8 697,-131.8 697,-131.8 1098.96,-131.8 1098.96,-131.8"/>
<polygon fill="black" stroke="black" points="1098.96,-135.3 1108.96,-131.8 1098.96,-128.3 1098.96,-135.3"/>
</g>
<!-- EtudiantsComponent -->
<g id="node14" class="node">
<title>EtudiantsComponent</title>
<polygon fill="#ffffb3" stroke="black" points="2385.21,-84.8 2250.79,-84.8 2250.79,-48.8 2385.21,-48.8 2385.21,-84.8"/>
<text text-anchor="middle" x="2318" y="-62.6" font-family="Times,serif" font-size="14.00">EtudiantsComponent</text>
</g>
<!-- EtudiantsModule -->
<g id="node17" class="node">
<title>EtudiantsModule</title>
<polygon fill="#8dd3c7" stroke="black" points="2122.44,-149.8 2119.44,-153.8 2098.44,-153.8 2095.44,-149.8 2009.56,-149.8 2009.56,-113.8 2122.44,-113.8 2122.44,-149.8"/>
<text text-anchor="middle" x="2066" y="-127.6" font-family="Times,serif" font-size="14.00">EtudiantsModule</text>
</g>
<!-- EtudiantsComponent&#45;&gt;EtudiantsModule -->
<g id="edge12" class="edge">
<title>EtudiantsComponent&#45;&gt;EtudiantsModule</title>
<path fill="none" stroke="black" d="M2318,-84.91C2318,-104.14 2318,-131.8 2318,-131.8 2318,-131.8 2132.24,-131.8 2132.24,-131.8"/>
<polygon fill="black" stroke="black" points="2132.24,-128.3 2122.24,-131.8 2132.24,-135.3 2132.24,-128.3"/>
</g>
<!-- FormEtudiantComponent -->
<g id="node15" class="node">
<title>FormEtudiantComponent</title>
<polygon fill="#ffffb3" stroke="black" points="2232.6,-84.8 2073.4,-84.8 2073.4,-48.8 2232.6,-48.8 2232.6,-84.8"/>
<text text-anchor="middle" x="2153" y="-62.6" font-family="Times,serif" font-size="14.00">FormEtudiantComponent</text>
</g>
<!-- FormEtudiantComponent&#45;&gt;EtudiantsModule -->
<g id="edge13" class="edge">
<title>FormEtudiantComponent&#45;&gt;EtudiantsModule</title>
<path fill="none" stroke="black" d="M2097.83,-84.91C2097.83,-84.91 2097.83,-103.79 2097.83,-103.79"/>
<polygon fill="black" stroke="black" points="2094.33,-103.79 2097.83,-113.79 2101.33,-103.79 2094.33,-103.79"/>
</g>
<!-- ListEtudiantComponent -->
<g id="node16" class="node">
<title>ListEtudiantComponent</title>
<polygon fill="#ffffb3" stroke="black" points="2055.05,-84.8 1904.95,-84.8 1904.95,-48.8 2055.05,-48.8 2055.05,-84.8"/>
<text text-anchor="middle" x="1980" y="-62.6" font-family="Times,serif" font-size="14.00">ListEtudiantComponent</text>
</g>
<!-- ListEtudiantComponent&#45;&gt;EtudiantsModule -->
<g id="edge14" class="edge">
<title>ListEtudiantComponent&#45;&gt;EtudiantsModule</title>
<path fill="none" stroke="black" d="M2032.53,-84.91C2032.53,-84.91 2032.53,-103.79 2032.53,-103.79"/>
<polygon fill="black" stroke="black" points="2029.03,-103.79 2032.53,-113.79 2036.03,-103.79 2029.03,-103.79"/>
</g>
<!-- EtudiantsRoutingModule -->
<g id="node18" class="node">
<title>EtudiantsRoutingModule</title>
<polygon fill="#8dd3c7" stroke="black" points="1880.55,-84.8 1877.55,-88.8 1856.55,-88.8 1853.55,-84.8 1723.45,-84.8 1723.45,-48.8 1880.55,-48.8 1880.55,-84.8"/>
<text text-anchor="middle" x="1802" y="-62.6" font-family="Times,serif" font-size="14.00">EtudiantsRoutingModule</text>
</g>
<!-- EtudiantsRoutingModule&#45;&gt;EtudiantsModule -->
<g id="edge15" class="edge">
<title>EtudiantsRoutingModule&#45;&gt;EtudiantsModule</title>
<path fill="none" stroke="black" d="M1802,-84.83C1802,-101.2 1802,-122.8 1802,-122.8 1802,-122.8 1999.69,-122.8 1999.69,-122.8"/>
<polygon fill="black" stroke="black" points="1999.69,-126.3 2009.69,-122.8 1999.69,-119.3 1999.69,-126.3"/>
</g>
</g>
</svg>
