<?xml version="1.0" encoding="UTF-8" standalone="no"?>
<!DOCTYPE svg PUBLIC "-//W3C//DTD SVG 1.1//EN"
 "http://www.w3.org/Graphics/SVG/1.1/DTD/svg11.dtd">
<!-- Generated by graphviz version 5.0.0 (20220707.1540)
 -->
<!-- Title: dependencies Pages: 1 -->
<svg width="1121pt" height="174pt"
 viewBox="0.00 0.00 1121.00 173.80" xmlns="http://www.w3.org/2000/svg" xmlns:xlink="http://www.w3.org/1999/xlink">
<g id="graph0" class="graph" transform="scale(1 1) rotate(0) translate(4 169.8)">
<title>dependencies</title>
<polygon fill="white" stroke="transparent" points="-4,4 -4,-169.8 1117,-169.8 1117,4 -4,4"/>
<text text-anchor="middle" x="556.5" y="-8.2" font-family="sans-serif" font-size="14.00">dependencies</text>
<g id="clust1" class="cluster">
<title>cluster_ContractsModule</title>
<polygon fill="none" stroke="black" stroke-dasharray="1,5" points="8,-32.8 8,-157.8 1105,-157.8 1105,-32.8 8,-32.8"/>
</g>
<g id="clust2" class="cluster">
<title>cluster_ContractsModule_declarations</title>
<polygon fill="none" stroke="black" points="198,-40.8 198,-92.8 1097,-92.8 1097,-40.8 198,-40.8"/>
</g>
<g id="clust8" class="cluster">
<title>cluster_ContractsModule_imports</title>
<polygon fill="none" stroke="black" points="16,-40.8 16,-92.8 190,-92.8 190,-40.8 16,-40.8"/>
</g>
<!-- ContractDetailComponent -->
<g id="node1" class="node">
<title>ContractDetailComponent</title>
<polygon fill="#ffffb3" stroke="black" points="1088.75,-84.8 925.25,-84.8 925.25,-48.8 1088.75,-48.8 1088.75,-84.8"/>
<text text-anchor="middle" x="1007" y="-62.6" font-family="Times,serif" font-size="14.00">ContractDetailComponent</text>
</g>
<!-- ContractsModule -->
<g id="node6" class="node">
<title>ContractsModule</title>
<polygon fill="#8dd3c7" stroke="black" points="628.71,-149.8 625.71,-153.8 604.71,-153.8 601.71,-149.8 515.29,-149.8 515.29,-113.8 628.71,-113.8 628.71,-149.8"/>
<text text-anchor="middle" x="572" y="-127.6" font-family="Times,serif" font-size="14.00">ContractsModule</text>
</g>
<!-- ContractDetailComponent&#45;&gt;ContractsModule -->
<g id="edge1" class="edge">
<title>ContractDetailComponent&#45;&gt;ContractsModule</title>
<path fill="none" stroke="black" d="M1007,-85.08C1007,-106.12 1007,-137.8 1007,-137.8 1007,-137.8 638.87,-137.8 638.87,-137.8"/>
<polygon fill="black" stroke="black" points="638.87,-134.3 628.87,-137.8 638.87,-141.3 638.87,-134.3"/>
</g>
<!-- ContractFormComponent -->
<g id="node2" class="node">
<title>ContractFormComponent</title>
<polygon fill="#ffffb3" stroke="black" points="906.88,-84.8 747.12,-84.8 747.12,-48.8 906.88,-48.8 906.88,-84.8"/>
<text text-anchor="middle" x="827" y="-62.6" font-family="Times,serif" font-size="14.00">ContractFormComponent</text>
</g>
<!-- ContractFormComponent&#45;&gt;ContractsModule -->
<g id="edge2" class="edge">
<title>ContractFormComponent&#45;&gt;ContractsModule</title>
<path fill="none" stroke="black" d="M827,-84.82C827,-102.17 827,-125.8 827,-125.8 827,-125.8 638.91,-125.8 638.91,-125.8"/>
<polygon fill="black" stroke="black" points="638.91,-122.3 628.91,-125.8 638.91,-129.3 638.91,-122.3"/>
</g>
<!-- ContractListComponent -->
<g id="node3" class="node">
<title>ContractListComponent</title>
<polygon fill="#ffffb3" stroke="black" points="728.82,-84.8 577.18,-84.8 577.18,-48.8 728.82,-48.8 728.82,-84.8"/>
<text text-anchor="middle" x="653" y="-62.6" font-family="Times,serif" font-size="14.00">ContractListComponent</text>
</g>
<!-- ContractListComponent&#45;&gt;ContractsModule -->
<g id="edge3" class="edge">
<title>ContractListComponent&#45;&gt;ContractsModule</title>
<path fill="none" stroke="black" d="M602.97,-84.91C602.97,-84.91 602.97,-103.79 602.97,-103.79"/>
<polygon fill="black" stroke="black" points="599.47,-103.79 602.97,-113.79 606.47,-103.79 599.47,-103.79"/>
</g>
<!-- ContractsComponent -->
<g id="node4" class="node">
<title>ContractsComponent</title>
<polygon fill="#ffffb3" stroke="black" points="559.49,-84.8 424.51,-84.8 424.51,-48.8 559.49,-48.8 559.49,-84.8"/>
<text text-anchor="middle" x="492" y="-62.6" font-family="Times,serif" font-size="14.00">ContractsComponent</text>
</g>
<!-- ContractsComponent&#45;&gt;ContractsModule -->
<g id="edge4" class="edge">
<title>ContractsComponent&#45;&gt;ContractsModule</title>
<path fill="none" stroke="black" d="M537.44,-84.91C537.44,-84.91 537.44,-103.79 537.44,-103.79"/>
<polygon fill="black" stroke="black" points="533.94,-103.79 537.44,-113.79 540.94,-103.79 533.94,-103.79"/>
</g>
<!-- ModalContractDetailComponent -->
<g id="node5" class="node">
<title>ModalContractDetailComponent</title>
<polygon fill="#ffffb3" stroke="black" points="406.3,-84.8 205.7,-84.8 205.7,-48.8 406.3,-48.8 406.3,-84.8"/>
<text text-anchor="middle" x="306" y="-62.6" font-family="Times,serif" font-size="14.00">ModalContractDetailComponent</text>
</g>
<!-- ModalContractDetailComponent&#45;&gt;ContractsModule -->
<g id="edge5" class="edge">
<title>ModalContractDetailComponent&#45;&gt;ContractsModule</title>
<path fill="none" stroke="black" d="M306,-84.82C306,-102.17 306,-125.8 306,-125.8 306,-125.8 505.26,-125.8 505.26,-125.8"/>
<polygon fill="black" stroke="black" points="505.26,-129.3 515.26,-125.8 505.26,-122.3 505.26,-129.3"/>
</g>
<!-- ContractsRoutingModule -->
<g id="node7" class="node">
<title>ContractsRoutingModule</title>
<polygon fill="#8dd3c7" stroke="black" points="182.32,-84.8 179.32,-88.8 158.32,-88.8 155.32,-84.8 23.68,-84.8 23.68,-48.8 182.32,-48.8 182.32,-84.8"/>
<text text-anchor="middle" x="103" y="-62.6" font-family="Times,serif" font-size="14.00">ContractsRoutingModule</text>
</g>
<!-- ContractsRoutingModule&#45;&gt;ContractsModule -->
<g id="edge6" class="edge">
<title>ContractsRoutingModule&#45;&gt;ContractsModule</title>
<path fill="none" stroke="black" d="M103,-85.08C103,-106.12 103,-137.8 103,-137.8 103,-137.8 504.96,-137.8 504.96,-137.8"/>
<polygon fill="black" stroke="black" points="504.96,-141.3 514.96,-137.8 504.96,-134.3 504.96,-141.3"/>
</g>
</g>
</svg>
